<?xml version="1.0" encoding="utf-8"?>
<!-- Generator: Adobe Illustrator 26.0.1, SVG Export Plug-In . SVG Version: 6.00 Build 0)  -->
<svg version="1.1" xmlns="http://www.w3.org/2000/svg" xmlns:xlink="http://www.w3.org/1999/xlink" x="0px" y="0px"
	 viewBox="0 0 480.6 140.24" style="enable-background:new 0 0 480.6 140.24;" xml:space="preserve">
<style type="text/css">
	.st0{fill:#3257A3;}
	.st1{fill:#C5D65E;}
</style>
<g id="Laag_1">
	<path class="st0" d="M210.71,95.48c0,4.96,0,9.67,0,14.38c0,1.63-0.33,1.96-1.98,1.96c-2.58,0-5.15,0.01-7.73,0
		c-1.19,0-1.57-0.4-1.62-1.6c-0.01-0.18,0-0.36,0-0.53c0-17.72,0-35.44,0-53.16c0-0.33-0.01-0.66,0.03-0.98
		c0.1-0.73,0.49-1.19,1.28-1.19c2.22,0,4.44,0,6.66,0c0.86,0,1.27,0.54,1.49,1.28c0.29,0.96,0.54,1.93,0.84,2.99
		c0.43-0.4,0.81-0.75,1.2-1.09c3.26-2.83,7.09-3.97,11.37-3.95c10.12,0.05,18.99,6.92,21.62,16.93
		c3.15,11.95-3.25,24.48-15.11,28.16c-5.59,1.74-11.08,1.63-16.17-1.72c-0.32-0.21-0.63-0.44-0.93-0.68
		C211.39,96.07,211.14,95.84,210.71,95.48z M233.37,76.92c-0.03-0.58-0.06-1.02-0.08-1.47c-0.4-8.18-8.73-13.38-16.24-10.12
		c-5.37,2.33-7.99,8.14-6.8,14.1c1.7,8.51,10.33,11.34,16.66,8.34C231.47,85.61,233.22,81.63,233.37,76.92z"/>
	<path class="st0" d="M106.48,59.07c2.98-2.63,6.17-4.33,9.79-5.09c9.02-1.89,18.72,2.5,21.01,13.68c0.39,1.9,0.53,3.87,0.55,5.81
		c0.06,7.85,0.03,15.7,0.02,23.55c0,1.38-0.4,1.79-1.79,1.8c-2.55,0.01-5.09,0.01-7.64,0c-1.36,0-1.81-0.45-1.81-1.82
		c-0.01-7.14,0-14.28,0-21.42c0-1.96-0.12-3.89-0.81-5.76c-1.6-4.32-5.72-6.38-10.06-5.72c-4.43,0.68-7.48,3.07-8.84,7.39
		c-0.31,0.99-0.39,2.09-0.4,3.15c-0.03,7.29-0.02,14.58-0.02,21.87c0,2.01-0.3,2.32-2.29,2.32c-2.31,0-4.62,0-6.93,0
		c-1.52,0-1.91-0.38-1.91-1.86c0-17.98,0-35.97,0-53.95c0-1.46,0.32-1.78,1.76-1.78c2.52,0,5.04,0,7.55,0
		c1.46,0,1.81,0.34,1.82,1.84c0.01,4.95,0,9.9,0,14.84C106.48,58.22,106.48,58.54,106.48,59.07z"/>
	<path class="st0" d="M168.16,53.6c13.07-0.04,23.53,10.52,23.4,23.34c-0.13,13.03-10.67,23.17-24.17,22.92
		c-13.02-0.24-22.97-11.03-22.67-23.76C145.01,63.72,155.46,53.51,168.16,53.6z M168.1,89.05c6.79,0.01,12.17-5.39,12.2-12.26
		c0.03-6.89-5.38-12.43-12.15-12.43c-6.74,0-12.13,5.47-12.15,12.33C155.98,83.57,161.34,89.04,168.1,89.05z"/>
	<path class="st1" d="M266.59,83.81c0,0.46,0,0.79,0,1.13c0,4.82,0,9.65,0,14.47c0,1.42-0.46,1.9-1.86,1.9
		c-2.89,0.01-5.78,0.01-8.66,0c-1.36-0.01-1.82-0.47-1.82-1.83c0-16.68,0-33.36,0-50.04c0-1.32,0.44-1.75,1.77-1.75
		c7.25,0,14.51-0.17,21.75,0.05c7.46,0.23,13.47,3.32,16.38,10.53c2.55,6.33,2.26,12.65-2.09,18.27c-1.23,1.59-2.96,2.8-4.59,4.3
		c0.51,1.04,1.13,2.29,1.75,3.54c2.43,4.91,4.87,9.82,7.3,14.73c0.75,1.51,0.33,2.2-1.34,2.21c-3.29,0.01-6.57-0.01-9.86,0.01
		c-1.15,0.01-1.87-0.47-2.35-1.53c-2.34-5.09-4.74-10.15-7.09-15.24c-0.25-0.55-0.52-0.77-1.15-0.76
		C272.05,83.83,269.38,83.81,266.59,83.81z M266.64,73.08c0.17,0.03,0.26,0.05,0.35,0.05c2.92,0,5.83,0.02,8.75,0
		c4.28-0.04,7.26-3.02,7.31-7.3c0.06-4.03-2.28-6.76-6.26-7.09c-2.2-0.18-4.41-0.11-6.62-0.13c-1.16-0.01-2.32,0-3.53,0
		C266.64,63.47,266.64,68.25,266.64,73.08z"/>
	<path class="st1" d="M435.64,83.26c-0.09-1.17-0.21-2.34-0.27-3.51c-0.51-10.09,4.83-20.46,15.2-24.05
		c8.06-2.79,18.67-0.91,24.52,6.07c3.07,3.66,4.77,7.9,5.3,12.6c0.23,2,0.19,4.04,0.21,6.06c0.02,1.55-0.48,2-2.06,2.01
		c-2.33,0.01-4.67,0-7,0c-7.65,0-15.3,0-22.95,0c-0.36,0-0.72,0-1.21,0c0.43,1.94,1.26,3.55,2.45,4.96
		c3.35,3.97,7.68,5.13,12.67,4.27c2.18-0.38,4.11-1.35,5.92-2.61c1.19-0.83,1.67-0.73,2.51,0.44c1.25,1.75,2.49,3.5,3.72,5.26
		c0.79,1.13,0.66,1.82-0.44,2.64c-4.88,3.67-10.41,5.32-16.45,4.99c-10.23-0.56-18-6.93-21.07-15.76c-0.13-0.36-0.45-0.66-0.68-0.98
		c0.85-0.3-0.24-0.67,0.17-1.07c0.06-0.01,0.26-0.06,0.51-0.11C436.3,84.02,435.97,83.64,435.64,83.26z M468.98,73.61
		c-1.01-5.33-4.83-8.6-9.34-8.94c-6.26-0.48-11.13,3.14-12.32,8.94C454.52,73.61,461.72,73.61,468.98,73.61z"/>
	<path class="st1" d="M300.2,78.49c0.07-13.42,10.88-24.06,24.39-24.01c13.64,0.05,24.36,10.8,24.21,24.43
		c-0.14,13.02-11.06,23.75-24.89,23.49C310.88,102.16,300.32,91.92,300.2,78.49z M337.09,78.94c0.23-6.84-4.5-12.42-10.94-13.17
		c-7.75-0.91-13.64,4.54-14.18,11.65c-0.56,7.24,4.48,13.19,11.6,13.73C330.75,91.7,336.82,86.33,337.09,78.94z"/>
	<path class="st1" d="M388.81,95.97c-3.29,3.07-7.03,5-11.34,5.75c-7.6,1.33-16.39-1.71-19.99-10.75c-1.12-2.82-1.65-5.77-1.66-8.8
		c-0.02-8.36-0.01-16.71-0.01-25.07c0-1.45,0.45-1.89,1.94-1.89c2.58,0,5.16,0,7.74,0c1.65,0,2.04,0.38,2.04,2.07
		c0,7.07-0.02,14.13,0.02,21.2c0.01,1.74,0.01,3.53,0.38,5.21c1.51,6.86,7.81,8.7,13.09,6.93c3.93-1.32,7.4-5.14,7.34-10.27
		c-0.08-7.62-0.02-15.24-0.02-22.86c0-1.98,0.31-2.28,2.29-2.28c2.55,0,5.1,0,7.65,0c1.32,0,1.77,0.45,1.77,1.77
		c0,14.16,0,28.32,0,42.49c0,1.35-0.46,1.82-1.83,1.82c-2.03,0.01-4.06,0.01-6.08,0c-1.17-0.01-1.67-0.37-2.05-1.47
		C389.66,98.59,389.26,97.34,388.81,95.97z"/>
	<path class="st1" d="M423.64,55.22c2.36,0,4.63,0,6.89,0c1.87,0,2.21,0.33,2.21,2.17c0,2.27,0.01,4.55,0,6.82
		c-0.01,1.45-0.42,1.85-1.89,1.86c-2.36,0.01-4.73,0-7.23,0c0,0.41,0,0.76,0,1.12c0,10.6,0,21.2,0,31.8c0,1.92-0.4,2.32-2.31,2.32
		c-2.49,0-4.98,0-7.47,0c-1.52,0-1.98-0.46-1.98-1.98c0-10.69,0-21.38,0-32.07c0-0.36,0-0.72,0-1.18c-1.35,0-2.6,0.01-3.85,0
		c-1.43-0.01-1.88-0.47-1.89-1.87c-0.01-2.4-0.01-4.79,0-7.19c0-1.29,0.5-1.78,1.77-1.79c1.26-0.01,2.51,0,3.92,0
		c0-0.38,0-0.7,0-1.02c0-2.33-0.01-4.67,0-7c0.01-1.22,0.37-1.69,1.53-1.92c2.82-0.56,5.65-1.1,8.48-1.63
		c1.19-0.22,1.79,0.3,1.8,1.55c0.01,2.98,0,5.96,0,8.94C423.64,54.47,423.64,54.8,423.64,55.22z"/>
	<path class="st1" d="M435.64,83.26c0.33,0.38,0.66,0.77,1.05,1.22c-0.25,0.05-0.45,0.1-0.51,0.11c-0.41,0.4,0.68,0.77-0.17,1.07
		c-0.28-0.24-0.55-0.48-0.83-0.72c-0.07,0.04-0.15,0.07-0.22,0.11c0-0.68,0-1.37,0-2.17C435.24,83.04,435.44,83.15,435.64,83.26z"/>
	<g>
		<path class="st0" d="M254.51,131.49l1.26-0.75c0.88,1.63,1.91,2.44,3.06,2.44c0.5,0,0.96-0.12,1.4-0.35s0.77-0.54,1-0.93
			c0.23-0.39,0.34-0.8,0.34-1.24c0-0.5-0.17-0.98-0.5-1.46c-0.46-0.66-1.31-1.45-2.53-2.37c-1.23-0.93-2-1.6-2.3-2.02
			c-0.52-0.7-0.78-1.45-0.78-2.26c0-0.64,0.15-1.23,0.46-1.76c0.31-0.53,0.74-0.95,1.3-1.25c0.56-0.3,1.17-0.46,1.82-0.46
			c0.7,0,1.35,0.17,1.95,0.52c0.61,0.35,1.25,0.98,1.92,1.9l-1.21,0.91c-0.56-0.74-1.03-1.22-1.42-1.46s-0.82-0.35-1.28-0.35
			c-0.6,0-1.08,0.18-1.46,0.54c-0.38,0.36-0.57,0.81-0.57,1.34c0,0.32,0.07,0.63,0.2,0.93c0.13,0.3,0.38,0.63,0.73,0.98
			c0.19,0.19,0.83,0.68,1.91,1.48c1.28,0.94,2.16,1.79,2.63,2.52c0.48,0.74,0.71,1.48,0.71,2.22c0,1.07-0.41,2-1.22,2.79
			c-0.81,0.79-1.8,1.19-2.97,1.19c-0.9,0-1.71-0.24-2.44-0.72C255.8,133.42,255.13,132.62,254.51,131.49z"/>
		<path class="st0" d="M266.06,119.09h1.41v6.18c0.57-0.75,1.2-1.31,1.88-1.68c0.68-0.37,1.42-0.56,2.22-0.56
			c0.82,0,1.54,0.21,2.17,0.62c0.63,0.42,1.1,0.97,1.4,1.67c0.3,0.7,0.45,1.8,0.45,3.29v5.63h-1.41v-5.21c0-1.26-0.05-2.1-0.15-2.52
			c-0.17-0.72-0.49-1.27-0.95-1.63c-0.46-0.36-1.06-0.55-1.8-0.55c-0.85,0-1.61,0.28-2.29,0.84s-1.12,1.26-1.33,2.09
			c-0.13,0.54-0.2,1.53-0.2,2.97v4.01h-1.41V119.09z"/>
		<path class="st0" d="M283.78,123.03c1.68,0,3.08,0.61,4.19,1.83c1.01,1.11,1.51,2.43,1.51,3.95c0,1.53-0.53,2.86-1.6,4
			c-1.06,1.14-2.43,1.71-4.1,1.71c-1.68,0-3.05-0.57-4.11-1.71c-1.06-1.14-1.59-2.48-1.59-4c0-1.51,0.5-2.83,1.51-3.94
			C280.69,123.65,282.09,123.03,283.78,123.03z M283.77,124.41c-1.17,0-2.17,0.43-3.01,1.3c-0.84,0.86-1.26,1.91-1.26,3.13
			c0,0.79,0.19,1.53,0.58,2.21c0.38,0.68,0.9,1.21,1.55,1.58c0.65,0.37,1.37,0.56,2.15,0.56c0.78,0,1.5-0.19,2.15-0.56
			c0.65-0.37,1.17-0.9,1.55-1.58c0.38-0.68,0.58-1.42,0.58-2.21c0-1.23-0.42-2.27-1.27-3.13
			C285.94,124.84,284.93,124.41,283.77,124.41z"/>
		<path class="st0" d="M292.1,123.31h1.41v2.01c0.55-0.76,1.19-1.34,1.92-1.72c0.72-0.38,1.53-0.57,2.42-0.57
			c1.55,0,2.88,0.56,3.98,1.68c1.1,1.12,1.66,2.46,1.66,4.04c0,1.61-0.55,2.97-1.64,4.09c-1.09,1.12-2.41,1.68-3.96,1.68
			c-0.87,0-1.67-0.18-2.4-0.54s-1.39-0.9-1.98-1.62v5.88h-1.41V123.31z M297.72,124.39c-1.22,0-2.24,0.42-3.07,1.27
			c-0.83,0.85-1.25,1.91-1.25,3.17c0,0.83,0.19,1.58,0.56,2.24c0.37,0.66,0.9,1.19,1.59,1.58s1.42,0.58,2.19,0.58
			c0.75,0,1.46-0.2,2.13-0.59c0.67-0.39,1.19-0.94,1.59-1.64c0.39-0.7,0.59-1.44,0.59-2.21c0-0.78-0.2-1.51-0.59-2.21
			c-0.39-0.7-0.92-1.24-1.58-1.62C299.22,124.58,298.5,124.39,297.72,124.39z"/>
		<path class="st0" d="M316.31,119.09v1.38c-0.52-0.22-0.96-0.33-1.33-0.33c-0.28,0-0.5,0.06-0.68,0.17
			c-0.18,0.11-0.29,0.24-0.34,0.38c-0.05,0.14-0.07,0.53-0.07,1.15l0,1.48h2.28v1.22h-2.28l-0.01,9.71h-1.41v-9.71h-1.44v-1.22h1.44
			v-1.71c0-0.78,0.07-1.34,0.22-1.68c0.14-0.33,0.39-0.6,0.73-0.81s0.76-0.31,1.25-0.31C315.13,118.81,315.67,118.91,316.31,119.09z
			"/>
		<path class="st0" d="M317.73,123.31h1.44v1.6c0.43-0.63,0.88-1.1,1.36-1.41c0.48-0.31,0.97-0.47,1.49-0.47
			c0.39,0,0.8,0.12,1.25,0.37l-0.73,1.19c-0.29-0.13-0.54-0.19-0.74-0.19c-0.47,0-0.92,0.19-1.36,0.58c-0.44,0.39-0.77,0.98-1,1.79
			c-0.17,0.62-0.26,1.88-0.26,3.78v3.7h-1.44V123.31z"/>
		<path class="st0" d="M329.63,123.03c1.68,0,3.08,0.61,4.19,1.83c1.01,1.11,1.51,2.43,1.51,3.95c0,1.53-0.53,2.86-1.6,4
			c-1.06,1.14-2.43,1.71-4.1,1.71c-1.68,0-3.05-0.57-4.11-1.71c-1.06-1.14-1.59-2.48-1.59-4c0-1.51,0.5-2.83,1.51-3.94
			C326.54,123.65,327.94,123.03,329.63,123.03z M329.62,124.41c-1.17,0-2.17,0.43-3.01,1.3c-0.84,0.86-1.26,1.91-1.26,3.13
			c0,0.79,0.19,1.53,0.58,2.21c0.38,0.68,0.9,1.21,1.55,1.58c0.65,0.37,1.37,0.56,2.15,0.56c0.78,0,1.5-0.19,2.15-0.56
			c0.65-0.37,1.17-0.9,1.55-1.58c0.38-0.68,0.58-1.42,0.58-2.21c0-1.23-0.42-2.27-1.27-3.13
			C331.79,124.84,330.79,124.41,329.62,124.41z"/>
		<path class="st0" d="M337.92,123.31h1.41v1.89c0.49-0.7,0.99-1.21,1.51-1.53c0.71-0.43,1.46-0.64,2.24-0.64
			c0.53,0,1.03,0.1,1.51,0.31c0.48,0.21,0.87,0.48,1.17,0.83c0.3,0.35,0.56,0.84,0.78,1.48c0.47-0.86,1.05-1.51,1.75-1.95
			c0.7-0.45,1.46-0.67,2.27-0.67c0.75,0,1.42,0.19,2,0.57c0.58,0.38,1.01,0.91,1.29,1.6s0.42,1.71,0.42,3.07v5.97h-1.44v-5.97
			c0-1.17-0.08-1.98-0.25-2.42c-0.17-0.44-0.45-0.79-0.86-1.06c-0.4-0.27-0.89-0.4-1.45-0.4c-0.68,0-1.3,0.2-1.87,0.6
			s-0.98,0.94-1.24,1.61c-0.26,0.67-0.39,1.79-0.39,3.36v4.28h-1.41v-5.6c0-1.32-0.08-2.22-0.25-2.69s-0.45-0.85-0.86-1.14
			s-0.89-0.43-1.46-0.43c-0.65,0-1.26,0.2-1.82,0.59c-0.57,0.39-0.98,0.92-1.26,1.58c-0.27,0.66-0.41,1.68-0.41,3.04v4.63h-1.41
			V123.31z"/>
		<path class="st0" d="M369.19,119.47l6.89,14.78h-1.59l-2.32-4.86h-6.37l-2.3,4.86h-1.65l6.98-14.78H369.19z M369,122.61
			l-2.53,5.35h5.05L369,122.61z"/>
		<path class="st0" d="M385.06,119.26h1.41v4.06h2.23v1.22h-2.23v9.71h-1.41v-9.71h-1.92v-1.22h1.92V119.26z"/>
		<path class="st0" d="M395.98,123.03c1.68,0,3.08,0.61,4.19,1.83c1.01,1.11,1.51,2.43,1.51,3.95c0,1.53-0.53,2.86-1.6,4
			c-1.06,1.14-2.43,1.71-4.1,1.71c-1.68,0-3.05-0.57-4.11-1.71c-1.06-1.14-1.59-2.48-1.59-4c0-1.51,0.5-2.83,1.51-3.94
			C392.89,123.65,394.29,123.03,395.98,123.03z M395.98,124.41c-1.17,0-2.17,0.43-3.01,1.3c-0.84,0.86-1.26,1.91-1.26,3.13
			c0,0.79,0.19,1.53,0.58,2.21c0.38,0.68,0.9,1.21,1.55,1.58c0.65,0.37,1.37,0.56,2.15,0.56c0.78,0,1.5-0.19,2.15-0.56
			c0.65-0.37,1.17-0.9,1.55-1.58c0.38-0.68,0.58-1.42,0.58-2.21c0-1.23-0.42-2.27-1.27-3.13
			C398.14,124.84,397.14,124.41,395.98,124.41z"/>
		<path class="st0" d="M410.25,119.47h2.91c1.17,0,2.07,0.14,2.7,0.42c0.63,0.28,1.13,0.7,1.49,1.28s0.55,1.22,0.55,1.92
			c0,0.66-0.16,1.25-0.48,1.79c-0.32,0.54-0.79,0.98-1.41,1.31c0.77,0.26,1.36,0.57,1.77,0.92s0.74,0.78,0.97,1.28
			c0.23,0.5,0.35,1.04,0.35,1.62c0,1.19-0.43,2.19-1.3,3.01c-0.87,0.82-2.03,1.23-3.49,1.23h-4.06V119.47z M411.7,120.91v4.73h0.85
			c1.03,0,1.78-0.1,2.26-0.29c0.48-0.19,0.87-0.49,1.15-0.9s0.42-0.87,0.42-1.37c0-0.68-0.24-1.21-0.71-1.59
			c-0.47-0.38-1.23-0.58-2.26-0.58H411.7z M411.7,127.13v5.67h1.83c1.08,0,1.87-0.11,2.38-0.32c0.5-0.21,0.91-0.54,1.21-0.99
			c0.31-0.45,0.46-0.93,0.46-1.46c0-0.66-0.21-1.23-0.64-1.72c-0.43-0.49-1.02-0.82-1.77-1c-0.5-0.12-1.38-0.18-2.63-0.18H411.7z"/>
		<path class="st0" d="M436.69,130.62l1.19,0.62c-0.39,0.76-0.84,1.38-1.35,1.85s-1.08,0.83-1.72,1.07
			c-0.64,0.24-1.36,0.37-2.16,0.37c-1.78,0-3.18-0.58-4.18-1.75s-1.51-2.49-1.51-3.96c0-1.39,0.42-2.62,1.28-3.71
			c1.08-1.38,2.52-2.07,4.33-2.07c1.86,0,3.35,0.71,4.46,2.12c0.79,1,1.19,2.24,1.21,3.74h-9.83c0.03,1.27,0.43,2.31,1.22,3.12
			c0.79,0.81,1.75,1.22,2.91,1.22c0.56,0,1.1-0.1,1.62-0.29c0.53-0.19,0.97-0.45,1.34-0.77
			C435.86,131.85,436.26,131.33,436.69,130.62z M436.69,127.67c-0.19-0.75-0.46-1.35-0.82-1.8c-0.36-0.45-0.83-0.81-1.42-1.08
			c-0.59-0.27-1.21-0.41-1.86-0.41c-1.07,0-2,0.34-2.77,1.03c-0.56,0.5-0.99,1.26-1.28,2.26H436.69z"/>
		<path class="st0" d="M451.75,123.31v10.93h-1.39v-1.88c-0.59,0.72-1.25,1.26-1.98,1.62s-1.54,0.54-2.41,0.54
			c-1.55,0-2.87-0.56-3.96-1.68c-1.1-1.12-1.64-2.49-1.64-4.09c0-1.57,0.55-2.92,1.66-4.04c1.11-1.12,2.43-1.68,3.99-1.68
			c0.9,0,1.71,0.19,2.44,0.57c0.73,0.38,1.36,0.95,1.91,1.72v-2.01H451.75z M446.13,124.39c-0.78,0-1.51,0.19-2.17,0.58
			s-1.19,0.92-1.58,1.62c-0.39,0.7-0.59,1.43-0.59,2.21c0,0.77,0.2,1.51,0.59,2.21c0.39,0.7,0.92,1.25,1.59,1.64
			c0.67,0.39,1.38,0.59,2.14,0.59c0.77,0,1.5-0.19,2.19-0.58c0.69-0.39,1.22-0.91,1.59-1.58c0.37-0.66,0.56-1.41,0.56-2.24
			c0-1.26-0.42-2.32-1.25-3.17C448.37,124.81,447.35,124.39,446.13,124.39z"/>
		<path class="st0" d="M460.41,124.51l-0.9,0.93c-0.75-0.73-1.49-1.1-2.21-1.1c-0.46,0-0.85,0.15-1.17,0.45
			c-0.33,0.3-0.49,0.65-0.49,1.05c0,0.35,0.13,0.69,0.4,1.01c0.27,0.33,0.83,0.71,1.69,1.16c1.05,0.54,1.76,1.06,2.13,1.57
			c0.37,0.51,0.55,1.08,0.55,1.72c0,0.9-0.32,1.66-0.95,2.28c-0.63,0.62-1.42,0.93-2.36,0.93c-0.63,0-1.23-0.14-1.81-0.41
			c-0.57-0.27-1.05-0.65-1.42-1.14l0.88-1c0.72,0.81,1.48,1.22,2.29,1.22c0.56,0,1.04-0.18,1.44-0.54c0.4-0.36,0.59-0.79,0.59-1.28
			c0-0.4-0.13-0.76-0.39-1.08c-0.26-0.31-0.85-0.7-1.77-1.17c-0.99-0.51-1.66-1.01-2.01-1.51c-0.36-0.5-0.53-1.06-0.53-1.7
			c0-0.83,0.28-1.52,0.85-2.07c0.57-0.55,1.28-0.82,2.15-0.82C458.38,123.03,459.39,123.52,460.41,124.51z"/>
		<path class="st0" d="M463.39,118.81c0.32,0,0.59,0.11,0.82,0.34s0.34,0.5,0.34,0.82c0,0.31-0.11,0.59-0.34,0.81
			c-0.23,0.23-0.5,0.34-0.82,0.34c-0.31,0-0.58-0.11-0.81-0.34c-0.23-0.23-0.34-0.5-0.34-0.81c0-0.32,0.11-0.6,0.34-0.82
			S463.08,118.81,463.39,118.81z M462.69,123.31h1.41v10.93h-1.41V123.31z"/>
		<path class="st0" d="M466.81,119.09h1.41v15.15h-1.41V119.09z"/>
		<path class="st0" d="M469.96,123.31h1.49l3.76,8.42l3.65-8.42h1.5l-6.52,14.93h-1.49l2.1-4.83L469.96,123.31z"/>
	</g>
	<path class="st0" d="M0,81.14c3.54-4.33,6.93-8.47,10.32-12.61c3.21,2.02,6.3,4.03,9.46,5.93c8.28,4.96,16.86,9.4,26.31,12.23
		c3.97,1.19,8,2.02,12.24,1.8c7.08-0.36,12.5-6.51,11.38-12.93c-0.88-5.04-3.97-8.81-7.88-12.16c-3.53-3.02-7.82-4.95-11.97-7.09
		c-6.33-3.27-12.37-6.92-17.56-11.63c-3.33-3.03-6.17-6.39-8.04-10.36c-3.4-7.25-2.37-14.04,2.68-20.33
		c4.62-5.75,10.52-9.76,18.41-10.9c5.88-0.85,11.66-0.33,17.38,1.03c5.69,1.35,11.08,3.39,16.34,5.76c0.84,0.38,1.21,0.27,1.61-0.51
		c1.05-2.05,2.2-4.06,3.31-6.09c0.16-0.3,0.34-0.59,0.6-1.03c7.64,9.52,13.37,19.82,18.4,30.86c-11.7-1.32-23.15-1.95-34.82-0.65
		c0.26-0.53,0.41-0.87,0.59-1.2c1.08-2,2.17-4.01,3.27-6c0.28-0.5,0.35-0.85-0.33-1.14c-4.58-1.98-9.15-3.96-14.17-4.84
		c-4.65-0.82-8.76-0.07-12.08,3.34c-3.06,3.15-3.42,6.8-0.8,10.26c2.25,2.98,5.37,5.08,8.68,6.93c4.13,2.3,8.42,4.38,12.51,6.73
		c8.75,5.02,15.63,11.62,19.26,20.62c3.47,8.61,3.27,17.11-2.19,25.04c-4.72,6.85-11.72,10.68-20.44,11.84
		c-8.29,1.11-16.2-0.49-23.94-3.02c-10.49-3.43-20.11-8.41-29.34-14.05C6.14,85.08,3.14,83.13,0,81.14z"/>
</g>
<g id="Laag_2">
</g>
</svg>
